<svg data-v-fde0c5aa="" xmlns="http://www.w3.org/2000/svg" viewBox="0 0 300 300" class="iconLeft"><!----><defs data-v-fde0c5aa=""><!----></defs><rect data-v-fde0c5aa="" fill="#004A66" x="0" y="0" width="300px" height="300px" class="logo-background-square"></rect><defs data-v-fde0c5aa=""><!----></defs><g data-v-fde0c5aa="" id="b3bdccd2-20a4-480d-ae0c-502b8bb851e5" fill="#ffffff" transform="matrix(1.0303378105163574,0,0,1.0303378105163574,71.81911675725391,139.1866057938201)"><path d="M8.46 4.33L8.46 14.52L7.08 14.52L7.08 9.84L2.52 9.84L2.52 14.52L1.13 14.52L1.13 4.33L2.52 4.33L2.52 8.76L7.08 8.76L7.08 4.33L8.46 4.33ZM16.57 7.02L16.57 14.53L15.33 14.53L15.20 13.56L15.20 13.56Q15.03 14.10 14.43 14.36L14.43 14.36L14.43 14.36Q13.83 14.62 12.97 14.62L12.97 14.62L12.97 14.62Q12.38 14.62 11.98 14.51L11.98 14.51L11.98 14.51Q11.57 14.39 11.30 14.17L11.30 14.17L11.30 14.17Q11.03 13.95 10.89 13.55L10.89 13.55L10.89 13.55Q10.74 13.15 10.68 12.65L10.68 12.65L10.68 12.65Q10.62 12.15 10.62 11.42L10.62 11.42L10.62 7.02L11.97 7.02L11.97 11.38L11.97 11.38Q11.97 11.53 11.97 11.78L11.97 11.78L11.97 11.78Q11.96 12.04 11.96 12.14L11.96 12.14L11.96 12.14Q11.96 12.50 11.98 12.71L11.98 12.71L11.98 12.71Q11.99 12.91 12.05 13.11L12.05 13.11L12.05 13.11Q12.11 13.31 12.20 13.40L12.20 13.40L12.20 13.40Q12.30 13.49 12.49 13.57L12.49 13.57L12.49 13.57Q12.68 13.64 12.93 13.67L12.93 13.67L12.93 13.67Q13.18 13.69 13.57 13.69L13.57 13.69L13.57 13.69Q14.01 13.69 14.31 13.62L14.31 13.62L14.31 13.62Q14.62 13.56 14.80 13.46L14.80 13.46L14.80 13.46Q14.98 13.36 15.07 13.19L15.07 13.19L15.07 13.19Q15.16 13.02 15.19 12.86L15.19 12.86L15.19 12.86Q15.22 12.69 15.22 12.45L15.22 12.45L15.22 12.45Q15.22 12.37 15.21 12.18L15.21 12.18L15.21 12.18Q15.21 12.00 15.21 11.90L15.21 11.90L15.21 7.02L16.57 7.02ZM24.62 4.03L24.62 14.52L23.39 14.52L23.26 13.58L23.26 13.58Q22.85 14.62 21.08 14.62L21.08 14.62L21.08 14.62Q20.61 14.62 20.24 14.56L20.24 14.56L20.24 14.56Q19.87 14.50 19.60 14.35L19.60 14.35L19.60 14.35Q19.33 14.20 19.13 14.04L19.13 14.04L19.13 14.04Q18.94 13.88 18.82 13.57L18.82 13.57L18.82 13.57Q18.69 13.27 18.62 13.02L18.62 13.02L18.62 13.02Q18.55 12.77 18.51 12.33L18.51 12.33L18.51 12.33Q18.48 11.88 18.47 11.55L18.47 11.55L18.47 11.55Q18.46 11.22 18.46 10.65L18.46 10.65L18.46 10.65Q18.46 10.10 18.48 9.69L18.48 9.69L18.48 9.69Q18.50 9.29 18.55 8.89L18.55 8.89L18.55 8.89Q18.60 8.50 18.69 8.23L18.69 8.23L18.69 8.23Q18.77 7.96 18.92 7.70L18.92 7.70L18.92 7.70Q19.06 7.45 19.26 7.30L19.26 7.30L19.26 7.30Q19.46 7.14 19.74 7.02L19.74 7.02L19.74 7.02Q20.02 6.90 20.38 6.86L20.38 6.86L20.38 6.86Q20.75 6.81 21.21 6.81L21.21 6.81L21.21 6.81Q22.09 6.81 22.58 7.04L22.58 7.04L22.58 7.04Q23.06 7.28 23.28 7.79L23.28 7.79L23.28 4.14L24.62 4.03ZM23.28 12.78L23.28 12.78L23.28 8.79L23.28 8.79Q23.28 8.20 22.91 7.97L22.91 7.97L22.91 7.97Q22.54 7.75 21.52 7.75L21.52 7.75L21.52 7.75Q20.73 7.75 20.34 7.87L20.34 7.87L20.34 7.87Q20.03 7.96 19.92 8.43L19.92 8.43L19.92 8.43Q19.81 8.90 19.81 9.69L19.81 9.69L19.81 9.69Q19.81 10.85 19.85 12.93L19.85 12.93L19.85 12.93Q19.89 13.38 20.22 13.53L20.22 13.53L20.22 13.53Q20.55 13.69 21.52 13.69L21.52 13.69L21.52 13.69Q22.48 13.69 22.86 13.49L22.86 13.49L22.86 13.49Q23.24 13.30 23.28 12.78ZM32.16 12.44L32.16 12.44L32.16 12.44Q32.16 13.10 32.01 13.52L32.01 13.52L32.01 13.52Q31.87 13.94 31.54 14.18L31.54 14.18L31.54 14.18Q31.21 14.43 30.73 14.53L30.73 14.53L30.73 14.53Q30.26 14.62 29.53 14.62L29.53 14.62L29.53 14.62Q29.11 14.62 28.85 14.62L28.85 14.62L28.85 14.62Q28.59 14.61 28.26 14.58L28.26 14.58L28.26 14.58Q27.92 14.55 27.73 14.50L27.73 14.50L27.73 14.50Q27.53 14.44 27.30 14.34L27.30 14.34L27.30 14.34Q27.07 14.24 26.94 14.09L26.94 14.09L26.94 14.09Q26.81 13.93 26.69 13.72L26.69 13.72L26.69 13.72Q26.58 13.51 26.53 13.22L26.53 13.22L26.53 13.22Q26.48 12.93 26.48 12.56L26.48 12.56L27.54 12.28L27.54 12.28Q27.60 13.06 27.69 13.27L27.69 13.27L27.69 13.27Q27.81 13.55 28.20 13.62L28.20 13.62L28.20 13.62Q28.49 13.69 29.44 13.69L29.44 13.69L29.44 13.69Q30.00 13.69 30.28 13.63L30.28 13.63L30.28 13.63Q30.56 13.58 30.65 13.44L30.65 13.44L30.65 13.44Q30.93 13.21 30.93 11.90L30.93 11.90L30.93 11.90Q30.93 11.70 30.84 11.56L30.84 11.56L30.84 11.56Q30.76 11.42 30.65 11.35L30.65 11.35L30.65 11.35Q30.53 11.28 30.32 11.23L30.32 11.23L30.32 11.23Q30.11 11.18 29.94 11.16L29.94 11.16L29.94 11.16Q29.78 11.14 29.50 11.12L29.50 11.12L29.50 11.12Q29.23 11.09 29.07 11.07L29.07 11.07L29.07 11.07Q28.57 11.01 28.25 10.96L28.25 10.96L28.25 10.96Q27.94 10.91 27.62 10.81L27.62 10.81L27.62 10.81Q27.30 10.71 27.11 10.55L27.11 10.55L27.11 10.55Q26.93 10.40 26.78 10.17L26.78 10.17L26.78 10.17Q26.63 9.93 26.57 9.59L26.57 9.59L26.57 9.59Q26.51 9.26 26.51 8.79L26.51 8.79L26.51 8.79Q26.51 8.30 26.61 7.96L26.61 7.96L26.61 7.96Q26.71 7.62 26.91 7.39L26.91 7.39L26.91 7.39Q27.11 7.16 27.46 7.04L27.46 7.04L27.46 7.04Q27.80 6.91 28.23 6.86L28.23 6.86L28.23 6.86Q28.66 6.81 29.29 6.81L29.29 6.81L29.29 6.81Q29.67 6.81 29.92 6.82L29.92 6.82L29.92 6.82Q30.17 6.83 30.47 6.87L30.47 6.87L30.47 6.87Q30.77 6.90 30.95 6.97L30.95 6.97L30.95 6.97Q31.14 7.04 31.33 7.16L31.33 7.16L31.33 7.16Q31.51 7.29 31.62 7.47L31.62 7.47L31.62 7.47Q31.72 7.65 31.78 7.91L31.78 7.91L31.78 7.91Q31.85 8.17 31.85 8.50L31.85 8.50L30.93 8.78L30.93 8.78Q30.91 8.52 30.88 8.36L30.88 8.36L30.88 8.36Q30.86 8.21 30.78 8.08L30.78 8.08L30.78 8.08Q30.69 7.95 30.60 7.90L30.60 7.90L30.60 7.90Q30.52 7.84 30.30 7.80L30.30 7.80L30.30 7.80Q30.08 7.76 29.87 7.75L29.87 7.75L29.87 7.75Q29.65 7.75 29.24 7.75L29.24 7.75L29.24 7.75Q28.36 7.75 28.05 7.92L28.05 7.92L28.05 7.92Q27.74 8.09 27.74 8.49L27.74 8.49L27.74 9.19L27.74 9.19Q27.74 9.64 28.01 9.76L28.01 9.76L28.01 9.76Q28.28 9.88 29.46 10.03L29.46 10.03L29.46 10.03Q29.58 10.05 29.64 10.06L29.64 10.06L29.64 10.06Q30.11 10.11 30.39 10.16L30.39 10.16L30.39 10.16Q30.67 10.21 30.97 10.28L30.97 10.28L30.97 10.28Q31.28 10.36 31.44 10.47L31.44 10.47L31.44 10.47Q31.60 10.58 31.76 10.74L31.76 10.74L31.76 10.74Q31.92 10.90 32.00 11.14L32.00 11.14L32.00 11.14Q32.07 11.38 32.11 11.70L32.11 11.70L32.11 11.70Q32.16 12.01 32.16 12.44ZM36.80 13.68L36.80 13.68L36.80 13.68Q37.78 13.66 38.15 13.54L38.15 13.54L38.15 13.54Q38.53 13.41 38.53 13.05L38.53 13.05L38.53 13.05Q38.61 12.07 38.61 10.79L38.61 10.79L38.61 10.79Q38.61 10.36 38.58 9.57L38.58 9.57L38.58 9.57Q38.54 8.78 38.54 8.40L38.54 8.40L38.54 8.40Q38.54 8.29 38.50 8.19L38.50 8.19L38.50 8.19Q38.47 8.09 38.38 8.03L38.38 8.03L38.38 8.03Q38.29 7.96 38.21 7.92L38.21 7.92L38.21 7.92Q38.12 7.87 37.97 7.84L37.97 7.84L37.97 7.84Q37.82 7.81 37.71 7.79L37.71 7.79L37.71 7.79Q37.60 7.77 37.41 7.77L37.41 7.77L37.41 7.77Q37.21 7.76 37.11 7.76L37.11 7.76L37.11 7.76Q37.00 7.76 36.80 7.76L36.80 7.76L36.80 7.76Q36.59 7.76 36.49 7.76L36.49 7.76L36.49 7.76Q36.38 7.76 36.19 7.77L36.19 7.77L36.19 7.77Q35.99 7.77 35.89 7.79L35.89 7.79L35.89 7.79Q35.78 7.81 35.63 7.84L35.63 7.84L35.63 7.84Q35.47 7.87 35.39 7.92L35.39 7.92L35.39 7.92Q35.30 7.96 35.22 8.03L35.22 8.03L35.22 8.03Q35.13 8.09 35.09 8.19L35.09 8.19L35.09 8.19Q35.05 8.29 35.05 8.40L35.05 8.40L35.05 8.40Q35.05 8.78 35.02 9.57L35.02 9.57L35.02 9.57Q34.99 10.36 34.99 10.79L34.99 10.79L34.99 10.79Q34.99 12.07 35.06 13.05L35.06 13.05L35.06 13.05Q35.06 13.41 35.46 13.55L35.46 13.55L35.46 13.55Q35.86 13.68 36.80 13.68ZM36.79 14.62L36.79 14.62L36.79 14.62Q36.03 14.62 35.53 14.56L35.53 14.56L35.53 14.56Q35.02 14.50 34.65 14.29L34.65 14.29L34.65 14.29Q34.29 14.08 34.10 13.85L34.10 13.85L34.10 13.85Q33.91 13.61 33.80 13.10L33.80 13.10L33.80 13.10Q33.69 12.59 33.66 12.09L33.66 12.09L33.66 12.09Q33.64 11.59 33.64 10.71L33.64 10.71L33.64 10.71Q33.64 10.04 33.66 9.60L33.66 9.60L33.66 9.60Q33.67 9.15 33.74 8.73L33.74 8.73L33.74 8.73Q33.80 8.30 33.89 8.04L33.89 8.04L33.89 8.04Q33.98 7.77 34.16 7.54L34.16 7.54L34.16 7.54Q34.33 7.30 34.55 7.18L34.55 7.18L34.55 7.18Q34.77 7.05 35.11 6.96L35.11 6.96L35.11 6.96Q35.44 6.87 35.84 6.84L35.84 6.84L35.84 6.84Q36.24 6.81 36.80 6.81L36.80 6.81L36.80 6.81Q37.35 6.81 37.75 6.84L37.75 6.84L37.75 6.84Q38.15 6.87 38.49 6.96L38.49 6.96L38.49 6.96Q38.83 7.05 39.05 7.18L39.05 7.18L39.05 7.18Q39.27 7.30 39.44 7.54L39.44 7.54L39.44 7.54Q39.61 7.77 39.71 8.04L39.71 8.04L39.71 8.04Q39.80 8.30 39.86 8.73L39.86 8.73L39.86 8.73Q39.92 9.15 39.94 9.60L39.94 9.60L39.94 9.60Q39.96 10.04 39.96 10.71L39.96 10.71L39.96 10.71Q39.96 11.59 39.93 12.09L39.93 12.09L39.93 12.09Q39.91 12.59 39.80 13.10L39.80 13.10L39.80 13.10Q39.69 13.61 39.49 13.85L39.49 13.85L39.49 13.85Q39.30 14.09 38.93 14.29L38.93 14.29L38.93 14.29Q38.57 14.50 38.06 14.56L38.06 14.56L38.06 14.56Q37.56 14.62 36.79 14.62ZM47.78 10.36L47.78 14.52L46.44 14.52L46.44 9.98L46.44 9.98Q46.44 9.54 46.43 9.28L46.43 9.28L46.43 9.28Q46.43 9.02 46.41 8.75L46.41 8.75L46.41 8.75Q46.38 8.48 46.35 8.35L46.35 8.35L46.35 8.35Q46.33 8.22 46.26 8.08L46.26 8.08L46.26 8.08Q46.18 7.95 46.11 7.90L46.11 7.90L46.11 7.90Q46.03 7.85 45.89 7.81L45.89 7.81L45.89 7.81Q45.75 7.77 45.60 7.76L45.60 7.76L45.60 7.76Q45.46 7.75 45.22 7.75L45.22 7.75L45.22 7.75Q44.70 7.75 44.33 7.81L44.33 7.81L44.33 7.81Q43.97 7.87 43.74 7.97L43.74 7.97L43.74 7.97Q43.50 8.07 43.38 8.26L43.38 8.26L43.38 8.26Q43.25 8.44 43.20 8.66L43.20 8.66L43.20 8.66Q43.16 8.87 43.16 9.19L43.16 9.19L43.16 9.19Q43.16 9.37 43.18 9.81L43.18 9.81L43.18 9.81Q43.20 10.25 43.20 10.52L43.20 10.52L43.20 14.52L41.85 14.52L41.85 7.02L43.08 7.02L43.21 7.86L43.21 7.86Q43.39 7.30 44.00 7.05L44.00 7.05L44.00 7.05Q44.60 6.81 45.45 6.81L45.45 6.81L45.45 6.81Q45.84 6.81 46.15 6.86L46.15 6.86L46.15 6.86Q46.46 6.90 46.70 7.02L46.70 7.02L46.70 7.02Q46.94 7.13 47.11 7.27L47.11 7.27L47.11 7.27Q47.28 7.42 47.40 7.65L47.40 7.65L47.40 7.65Q47.52 7.89 47.60 8.13L47.60 8.13L47.60 8.13Q47.67 8.38 47.71 8.75L47.71 8.75L47.71 8.75Q47.76 9.12 47.77 9.48L47.77 9.48L47.77 9.48Q47.78 9.85 47.78 10.36L47.78 10.36ZM59.55 7.66L59.55 7.66L59.55 7.66Q59.55 8.28 59.48 8.76L59.48 8.76L59.48 8.76Q59.41 9.25 59.30 9.59L59.30 9.59L59.30 9.59Q59.19 9.94 58.99 10.19L58.99 10.19L58.99 10.19Q58.80 10.43 58.58 10.58L58.58 10.58L58.58 10.58Q58.37 10.73 58.06 10.82L58.06 10.82L58.06 10.82Q57.76 10.90 57.46 10.93L57.46 10.93L57.46 10.93Q57.16 10.96 56.77 10.96L56.77 10.96L54.05 10.96L54.05 14.52L52.67 14.52L52.67 4.33L56.36 4.33L56.36 4.33Q57.00 4.33 57.44 4.39L57.44 4.39L57.44 4.39Q57.88 4.44 58.26 4.57L58.26 4.57L58.26 4.57Q58.63 4.71 58.86 4.94L58.86 4.94L58.86 4.94Q59.08 5.17 59.25 5.55L59.25 5.55L59.25 5.55Q59.41 5.93 59.48 6.44L59.48 6.44L59.48 6.44Q59.54 6.95 59.55 7.66ZM58.17 7.58L58.17 7.58L58.17 7.58Q58.16 7.09 58.14 6.78L58.14 6.78L58.14 6.78Q58.12 6.47 58.06 6.20L58.06 6.20L58.06 6.20Q58.00 5.93 57.91 5.78L57.91 5.78L57.91 5.78Q57.82 5.64 57.66 5.53L57.66 5.53L57.66 5.53Q57.50 5.43 57.28 5.39L57.28 5.39L57.28 5.39Q57.07 5.36 56.75 5.36L56.75 5.36L54.05 5.36L54.05 9.93L56.46 9.93L56.46 9.93Q57.00 9.93 57.33 9.84L57.33 9.84L57.33 9.84Q57.67 9.75 57.86 9.54L57.86 9.54L57.86 9.54Q58.04 9.33 58.11 9.05L58.11 9.05L58.11 9.05Q58.17 8.77 58.17 8.33L58.17 8.33L58.17 8.33Q58.17 8.22 58.17 7.97L58.17 7.97L58.17 7.97Q58.17 7.72 58.17 7.58ZM64.58 6.85L64.58 6.85L64.52 7.99L64.52 7.99Q64.26 7.96 64.03 7.96L64.03 7.96L64.03 7.96Q63.55 7.96 63.25 8.05L63.25 8.05L63.25 8.05Q62.95 8.15 62.79 8.38L62.79 8.38L62.79 8.38Q62.64 8.61 62.59 8.91L62.59 8.91L62.59 8.91Q62.54 9.21 62.54 9.71L62.54 9.71L62.54 9.71Q62.54 9.99 62.56 10.53L62.56 10.53L62.56 10.53Q62.58 11.07 62.58 11.30L62.58 11.30L62.58 14.52L61.24 14.52L61.24 7.02L62.46 7.02L62.60 7.86L62.60 7.86Q62.81 7.37 63.24 7.10L63.24 7.10L63.24 7.10Q63.67 6.83 64.27 6.83L64.27 6.83L64.27 6.83Q64.42 6.83 64.58 6.85ZM68.97 13.68L68.97 13.68L68.97 13.68Q69.95 13.66 70.32 13.54L70.32 13.54L70.32 13.54Q70.70 13.41 70.70 13.05L70.70 13.05L70.70 13.05Q70.78 12.07 70.78 10.79L70.78 10.79L70.78 10.79Q70.78 10.36 70.75 9.57L70.75 9.57L70.75 9.57Q70.71 8.78 70.71 8.40L70.71 8.40L70.71 8.40Q70.71 8.29 70.67 8.19L70.67 8.19L70.67 8.19Q70.64 8.09 70.55 8.03L70.55 8.03L70.55 8.03Q70.46 7.96 70.38 7.92L70.38 7.92L70.38 7.92Q70.29 7.87 70.14 7.84L70.14 7.84L70.14 7.84Q69.99 7.81 69.88 7.79L69.88 7.79L69.88 7.79Q69.77 7.77 69.58 7.77L69.58 7.77L69.58 7.77Q69.38 7.76 69.28 7.76L69.28 7.76L69.28 7.76Q69.17 7.76 68.97 7.76L68.97 7.76L68.97 7.76Q68.76 7.76 68.66 7.76L68.66 7.76L68.66 7.76Q68.55 7.76 68.36 7.77L68.36 7.77L68.36 7.77Q68.16 7.77 68.06 7.79L68.06 7.79L68.06 7.79Q67.95 7.81 67.80 7.84L67.80 7.84L67.80 7.84Q67.64 7.87 67.56 7.92L67.56 7.92L67.56 7.92Q67.47 7.96 67.39 8.03L67.39 8.03L67.39 8.03Q67.30 8.09 67.26 8.19L67.26 8.19L67.26 8.19Q67.22 8.29 67.22 8.40L67.22 8.40L67.22 8.40Q67.22 8.78 67.19 9.57L67.19 9.57L67.19 9.57Q67.16 10.36 67.16 10.79L67.16 10.79L67.16 10.79Q67.16 12.07 67.23 13.05L67.23 13.05L67.23 13.05Q67.23 13.41 67.63 13.55L67.63 13.55L67.63 13.55Q68.03 13.68 68.97 13.68ZM68.96 14.62L68.96 14.62L68.96 14.62Q68.20 14.62 67.70 14.56L67.70 14.56L67.70 14.56Q67.19 14.50 66.82 14.29L66.82 14.29L66.82 14.29Q66.46 14.08 66.27 13.85L66.27 13.85L66.27 13.85Q66.08 13.61 65.97 13.10L65.97 13.10L65.97 13.10Q65.86 12.59 65.83 12.09L65.83 12.09L65.83 12.09Q65.81 11.59 65.81 10.71L65.81 10.71L65.81 10.71Q65.81 10.04 65.83 9.60L65.83 9.60L65.83 9.60Q65.84 9.15 65.91 8.73L65.91 8.73L65.91 8.73Q65.97 8.30 66.06 8.04L66.06 8.04L66.06 8.04Q66.15 7.77 66.33 7.54L66.33 7.54L66.33 7.54Q66.50 7.30 66.72 7.18L66.72 7.18L66.72 7.18Q66.94 7.05 67.28 6.96L67.28 6.96L67.28 6.96Q67.61 6.87 68.01 6.84L68.01 6.84L68.01 6.84Q68.41 6.81 68.97 6.81L68.97 6.81L68.97 6.81Q69.52 6.81 69.92 6.84L69.92 6.84L69.92 6.84Q70.32 6.87 70.66 6.96L70.66 6.96L70.66 6.96Q71.00 7.05 71.22 7.18L71.22 7.18L71.22 7.18Q71.44 7.30 71.61 7.54L71.61 7.54L71.61 7.54Q71.78 7.77 71.88 8.04L71.88 8.04L71.88 8.04Q71.97 8.30 72.03 8.73L72.03 8.73L72.03 8.73Q72.09 9.15 72.11 9.60L72.11 9.60L72.11 9.60Q72.13 10.04 72.13 10.71L72.13 10.71L72.13 10.71Q72.13 11.59 72.10 12.09L72.10 12.09L72.10 12.09Q72.08 12.59 71.97 13.10L71.97 13.10L71.97 13.10Q71.86 13.61 71.66 13.85L71.66 13.85L71.66 13.85Q71.47 14.09 71.10 14.29L71.10 14.29L71.10 14.29Q70.74 14.50 70.23 14.56L70.23 14.56L70.23 14.56Q69.73 14.62 68.96 14.62ZM85.96 4.33L87.24 4.33L85.08 14.52L83.60 14.52L81.66 6.50L79.73 14.52L78.25 14.52L76.01 4.33L77.47 4.33L79.07 12.61L81.02 4.33L82.39 4.33L84.40 12.61L85.96 4.33ZM90.05 7.02L90.05 14.52L88.70 14.52L88.70 7.02L90.05 7.02ZM88.70 4.12L90.05 4.12L90.05 5.30L88.70 5.30L88.70 4.12ZM98.14 10.36L98.14 14.52L96.80 14.52L96.80 9.98L96.80 9.98Q96.80 9.54 96.79 9.28L96.79 9.28L96.79 9.28Q96.79 9.02 96.77 8.75L96.77 8.75L96.77 8.75Q96.74 8.48 96.71 8.35L96.71 8.35L96.71 8.35Q96.69 8.22 96.62 8.08L96.62 8.08L96.62 8.08Q96.54 7.95 96.47 7.90L96.47 7.90L96.47 7.90Q96.39 7.85 96.25 7.81L96.25 7.81L96.25 7.81Q96.11 7.77 95.96 7.76L95.96 7.76L95.96 7.76Q95.82 7.75 95.58 7.75L95.58 7.75L95.58 7.75Q95.06 7.75 94.69 7.81L94.69 7.81L94.69 7.81Q94.33 7.87 94.10 7.97L94.10 7.97L94.10 7.97Q93.86 8.07 93.74 8.26L93.74 8.26L93.74 8.26Q93.61 8.44 93.56 8.66L93.56 8.66L93.56 8.66Q93.52 8.87 93.52 9.19L93.52 9.19L93.52 9.19Q93.52 9.37 93.54 9.81L93.54 9.81L93.54 9.81Q93.56 10.25 93.56 10.52L93.56 10.52L93.56 14.52L92.21 14.52L92.21 7.02L93.44 7.02L93.57 7.86L93.57 7.86Q93.75 7.30 94.36 7.05L94.36 7.05L94.36 7.05Q94.96 6.81 95.81 6.81L95.81 6.81L95.81 6.81Q96.20 6.81 96.51 6.86L96.51 6.86L96.51 6.86Q96.82 6.90 97.06 7.02L97.06 7.02L97.06 7.02Q97.30 7.13 97.47 7.27L97.47 7.27L97.47 7.27Q97.64 7.42 97.76 7.65L97.76 7.65L97.76 7.65Q97.88 7.89 97.96 8.13L97.96 8.13L97.96 8.13Q98.03 8.38 98.08 8.75L98.08 8.75L98.08 8.75Q98.12 9.12 98.13 9.48L98.13 9.48L98.13 9.48Q98.14 9.85 98.14 10.36L98.14 10.36ZM106.18 4.03L106.18 14.52L104.95 14.52L104.82 13.58L104.82 13.58Q104.40 14.62 102.63 14.62L102.63 14.62L102.63 14.62Q102.16 14.62 101.79 14.56L101.79 14.56L101.79 14.56Q101.42 14.50 101.15 14.35L101.15 14.35L101.15 14.35Q100.88 14.20 100.69 14.04L100.69 14.04L100.69 14.04Q100.50 13.88 100.37 13.57L100.37 13.57L100.37 13.57Q100.24 13.27 100.17 13.02L100.17 13.02L100.17 13.02Q100.10 12.77 100.06 12.33L100.06 12.33L100.06 12.33Q100.03 11.88 100.02 11.55L100.02 11.55L100.02 11.55Q100.02 11.22 100.02 10.65L100.02 10.65L100.02 10.65Q100.02 10.10 100.03 9.69L100.03 9.69L100.03 9.69Q100.05 9.29 100.10 8.89L100.10 8.89L100.10 8.89Q100.15 8.50 100.24 8.23L100.24 8.23L100.24 8.23Q100.32 7.96 100.47 7.70L100.47 7.70L100.47 7.70Q100.61 7.45 100.81 7.30L100.81 7.30L100.81 7.30Q101.01 7.14 101.29 7.02L101.29 7.02L101.29 7.02Q101.58 6.90 101.94 6.86L101.94 6.86L101.94 6.86Q102.30 6.81 102.76 6.81L102.76 6.81L102.76 6.81Q103.64 6.81 104.13 7.04L104.13 7.04L104.13 7.04Q104.62 7.28 104.83 7.79L104.83 7.79L104.83 4.14L106.18 4.03ZM104.83 12.78L104.83 12.78L104.83 8.79L104.83 8.79Q104.83 8.20 104.46 7.97L104.46 7.97L104.46 7.97Q104.09 7.75 103.07 7.75L103.07 7.75L103.07 7.75Q102.28 7.75 101.90 7.87L101.90 7.87L101.90 7.87Q101.58 7.96 101.47 8.43L101.47 8.43L101.47 8.43Q101.36 8.90 101.36 9.69L101.36 9.69L101.36 9.69Q101.36 10.85 101.40 12.93L101.40 12.93L101.40 12.93Q101.44 13.38 101.77 13.53L101.77 13.53L101.77 13.53Q102.10 13.69 103.07 13.69L103.07 13.69L103.07 13.69Q104.03 13.69 104.41 13.49L104.41 13.49L104.41 13.49Q104.79 13.30 104.83 12.78ZM111.14 13.68L111.14 13.68L111.14 13.68Q112.11 13.66 112.49 13.54L112.49 13.54L112.49 13.54Q112.87 13.41 112.87 13.05L112.87 13.05L112.87 13.05Q112.94 12.07 112.94 10.79L112.94 10.79L112.94 10.79Q112.94 10.36 112.91 9.57L112.91 9.57L112.91 9.57Q112.88 8.78 112.88 8.40L112.88 8.40L112.88 8.40Q112.88 8.29 112.84 8.19L112.84 8.19L112.84 8.19Q112.80 8.09 112.71 8.03L112.71 8.03L112.71 8.03Q112.63 7.96 112.54 7.92L112.54 7.92L112.54 7.92Q112.46 7.87 112.30 7.84L112.30 7.84L112.30 7.84Q112.15 7.81 112.04 7.79L112.04 7.79L112.04 7.79Q111.94 7.77 111.74 7.77L111.74 7.77L111.74 7.77Q111.55 7.76 111.44 7.76L111.44 7.76L111.44 7.76Q111.34 7.76 111.13 7.76L111.13 7.76L111.13 7.76Q110.93 7.76 110.82 7.76L110.82 7.76L110.82 7.76Q110.71 7.76 110.52 7.77L110.52 7.77L110.52 7.77Q110.33 7.77 110.22 7.79L110.22 7.79L110.22 7.79Q110.11 7.81 109.96 7.84L109.96 7.84L109.96 7.84Q109.81 7.87 109.72 7.92L109.72 7.92L109.72 7.92Q109.63 7.96 109.55 8.03L109.55 8.03L109.55 8.03Q109.46 8.09 109.43 8.19L109.43 8.19L109.43 8.19Q109.39 8.29 109.39 8.40L109.39 8.40L109.39 8.40Q109.39 8.78 109.35 9.57L109.35 9.57L109.35 9.57Q109.32 10.36 109.32 10.79L109.32 10.79L109.32 10.79Q109.32 12.07 109.40 13.05L109.40 13.05L109.40 13.05Q109.40 13.41 109.80 13.55L109.80 13.55L109.80 13.55Q110.20 13.68 111.14 13.68ZM111.13 14.62L111.13 14.62L111.13 14.62Q110.37 14.62 109.86 14.56L109.86 14.56L109.86 14.56Q109.35 14.50 108.99 14.29L108.99 14.29L108.99 14.29Q108.62 14.08 108.43 13.85L108.43 13.85L108.43 13.85Q108.24 13.61 108.13 13.10L108.13 13.10L108.13 13.10Q108.02 12.59 108.00 12.09L108.00 12.09L108.00 12.09Q107.97 11.59 107.97 10.71L107.97 10.71L107.97 10.71Q107.97 10.04 107.99 9.60L107.99 9.60L107.99 9.60Q108.01 9.15 108.07 8.73L108.07 8.73L108.07 8.73Q108.13 8.30 108.22 8.04L108.22 8.04L108.22 8.04Q108.32 7.77 108.49 7.54L108.49 7.54L108.49 7.54Q108.66 7.30 108.88 7.18L108.88 7.18L108.88 7.18Q109.10 7.05 109.44 6.96L109.44 6.96L109.44 6.96Q109.78 6.87 110.18 6.84L110.18 6.84L110.18 6.84Q110.58 6.81 111.13 6.81L111.13 6.81L111.13 6.81Q111.69 6.81 112.09 6.84L112.09 6.84L112.09 6.84Q112.49 6.87 112.82 6.96L112.82 6.96L112.82 6.96Q113.16 7.05 113.38 7.18L113.38 7.18L113.38 7.18Q113.60 7.30 113.77 7.54L113.77 7.54L113.77 7.54Q113.95 7.77 114.04 8.04L114.04 8.04L114.04 8.04Q114.13 8.30 114.19 8.73L114.19 8.73L114.19 8.73Q114.26 9.15 114.27 9.60L114.27 9.60L114.27 9.60Q114.29 10.04 114.29 10.71L114.29 10.71L114.29 10.71Q114.29 11.59 114.27 12.09L114.27 12.09L114.27 12.09Q114.24 12.59 114.13 13.10L114.13 13.10L114.13 13.10Q114.02 13.61 113.83 13.85L113.83 13.85L113.83 13.85Q113.63 14.09 113.27 14.29L113.27 14.29L113.27 14.29Q112.90 14.50 112.40 14.56L112.40 14.56L112.40 14.56Q111.89 14.62 111.13 14.62ZM123.83 7.02L125.18 7.02L123.22 14.52L121.98 14.52L120.35 8.82L118.79 14.52L117.41 14.52L115.45 7.02L116.74 7.02L118.08 12.93L119.72 7.02L120.93 7.02L122.47 12.93L123.83 7.02ZM135.46 11.36L135.46 11.36L136.65 11.54L136.65 11.54Q136.62 12.20 136.53 12.66L136.53 12.66L136.53 12.66Q136.45 13.12 136.29 13.48L136.29 13.48L136.29 13.48Q136.13 13.84 135.90 14.06L135.90 14.06L135.90 14.06Q135.67 14.29 135.30 14.43L135.30 14.43L135.30 14.43Q134.93 14.57 134.48 14.63L134.48 14.63L134.48 14.63Q134.03 14.68 133.38 14.68L133.38 14.68L133.38 14.68Q132.77 14.68 132.28 14.65L132.28 14.65L132.28 14.65Q131.80 14.62 131.40 14.52L131.40 14.52L131.40 14.52Q131.00 14.41 130.70 14.31L130.70 14.31L130.70 14.31Q130.40 14.21 130.17 13.98L130.17 13.98L130.17 13.98Q129.94 13.75 129.79 13.56L129.79 13.56L129.79 13.56Q129.64 13.38 129.53 13.00L129.53 13.00L129.53 13.00Q129.42 12.62 129.37 12.33L129.37 12.33L129.37 12.33Q129.32 12.04 129.28 11.50L129.28 11.50L129.28 11.50Q129.25 10.95 129.25 10.54L129.25 10.54L129.25 10.54Q129.24 10.13 129.24 9.41L129.24 9.41L129.24 9.41Q129.24 8.64 129.25 8.18L129.25 8.18L129.25 8.18Q129.25 7.71 129.29 7.16L129.29 7.16L129.29 7.16Q129.32 6.62 129.37 6.32L129.37 6.32L129.37 6.32Q129.42 6.02 129.54 5.66L129.54 5.66L129.54 5.66Q129.65 5.30 129.79 5.12L129.79 5.12L129.79 5.12Q129.94 4.95 130.17 4.74L130.17 4.74L130.17 4.74Q130.40 4.54 130.68 4.46L130.68 4.46L130.68 4.46Q130.96 4.38 131.35 4.30L131.35 4.30L131.35 4.30Q131.75 4.22 132.20 4.20L132.20 4.20L132.20 4.20Q132.66 4.18 133.26 4.18L133.26 4.18L133.26 4.18Q133.88 4.18 134.32 4.22L134.32 4.22L134.32 4.22Q134.76 4.27 135.14 4.39L135.14 4.39L135.14 4.39Q135.52 4.52 135.77 4.73L135.77 4.73L135.77 4.73Q136.01 4.94 136.20 5.27L136.20 5.27L136.20 5.27Q136.39 5.61 136.49 6.06L136.49 6.06L136.49 6.06Q136.60 6.51 136.64 7.15L136.64 7.15L135.45 7.38L135.45 7.38Q135.41 7.03 135.39 6.80L135.39 6.80L135.39 6.80Q135.36 6.57 135.31 6.34L135.31 6.34L135.31 6.34Q135.26 6.12 135.23 5.98L135.23 5.98L135.23 5.98Q135.19 5.84 135.10 5.70L135.10 5.70L135.10 5.70Q135.00 5.57 134.94 5.50L134.94 5.50L134.94 5.50Q134.89 5.43 134.73 5.37L134.73 5.37L134.73 5.37Q134.57 5.31 134.47 5.29L134.47 5.29L134.47 5.29Q134.36 5.26 134.12 5.24L134.12 5.24L134.12 5.24Q133.88 5.22 133.70 5.22L133.70 5.22L133.70 5.22Q133.52 5.22 133.18 5.22L133.18 5.22L133.18 5.22Q132.70 5.22 132.40 5.23L132.40 5.23L132.40 5.23Q132.09 5.24 131.79 5.28L131.79 5.28L131.79 5.28Q131.48 5.32 131.31 5.39L131.31 5.39L131.31 5.39Q131.13 5.46 130.98 5.58L130.98 5.58L130.98 5.58Q130.83 5.70 130.77 5.88L130.77 5.88L130.77 5.88Q130.70 6.05 130.69 6.30L130.69 6.30L130.69 6.30Q130.63 8.10 130.63 9.98L130.63 9.98L130.63 9.98Q130.63 11.29 130.69 12.54L130.69 12.54L130.69 12.54Q130.72 12.93 130.91 13.15L130.91 13.15L130.91 13.15Q131.10 13.37 131.64 13.50L131.64 13.50L131.64 13.50Q132.19 13.63 133.18 13.63L133.18 13.63L133.18 13.63Q133.72 13.63 134.08 13.60L134.08 13.60L134.08 13.60Q134.44 13.57 134.69 13.46L134.69 13.46L134.69 13.46Q134.93 13.34 135.06 13.25L135.06 13.25L135.06 13.25Q135.19 13.16 135.27 12.89L135.27 12.89L135.27 12.89Q135.35 12.63 135.38 12.44L135.38 12.44L135.38 12.44Q135.40 12.26 135.43 11.83L135.43 11.83L135.43 11.83Q135.43 11.73 135.44 11.68L135.44 11.68L135.44 11.68Q135.44 11.62 135.45 11.53L135.45 11.53L135.45 11.53Q135.45 11.44 135.46 11.36ZM139.84 4.25L139.84 14.52L138.49 14.52L138.49 4.36L139.84 4.25ZM147.85 10.66L147.85 10.66L147.85 10.66Q147.03 10.75 146.84 10.76L146.84 10.76L143.11 10.76L143.11 10.76Q143.12 11.75 143.17 12.93L143.17 12.93L143.17 12.93Q143.20 13.39 143.56 13.54L143.56 13.54L143.56 13.54Q143.92 13.69 144.96 13.69L144.96 13.69L144.96 13.69Q145.35 13.69 145.63 13.65L145.63 13.65L145.63 13.65Q145.91 13.62 146.08 13.55L146.08 13.55L146.08 13.55Q146.25 13.47 146.35 13.40L146.35 13.40L146.35 13.40Q146.45 13.32 146.50 13.17L146.50 13.17L146.50 13.17Q146.55 13.02 146.56 12.91L146.56 12.91L146.56 12.91Q146.58 12.80 146.59 12.59L146.59 12.59L146.59 12.59Q146.60 12.37 146.62 12.24L146.62 12.24L147.67 12.43L147.67 12.43Q147.66 12.91 147.60 13.24L147.60 13.24L147.60 13.24Q147.55 13.57 147.42 13.82L147.42 13.82L147.42 13.82Q147.29 14.08 147.11 14.22L147.11 14.22L147.11 14.22Q146.93 14.37 146.63 14.46L146.63 14.46L146.63 14.46Q146.33 14.56 145.97 14.59L145.97 14.59L145.97 14.59Q145.61 14.62 145.07 14.62L145.07 14.62L145.07 14.62Q144.39 14.62 143.88 14.54L143.88 14.54L143.88 14.54Q143.38 14.46 143.02 14.35L143.02 14.35L143.02 14.35Q142.66 14.23 142.43 13.97L142.43 13.97L142.43 13.97Q142.19 13.71 142.06 13.47L142.06 13.47L142.06 13.47Q141.93 13.23 141.87 12.76L141.87 12.76L141.87 12.76Q141.80 12.30 141.79 11.92L141.79 11.92L141.79 11.92Q141.77 11.54 141.77 10.87L141.77 10.87L141.77 10.87Q141.77 9.93 141.79 9.40L141.79 9.40L141.79 9.40Q141.82 8.87 141.93 8.34L141.93 8.34L141.93 8.34Q142.04 7.81 142.22 7.57L142.22 7.57L142.22 7.57Q142.41 7.33 142.77 7.13L142.77 7.13L142.77 7.13Q143.13 6.92 143.62 6.87L143.62 6.87L143.62 6.87Q144.12 6.81 144.87 6.81L144.87 6.81L144.87 6.81Q145.40 6.81 145.78 6.84L145.78 6.84L145.78 6.84Q146.17 6.87 146.49 6.97L146.49 6.97L146.49 6.97Q146.81 7.06 147.02 7.18L147.02 7.18L147.02 7.18Q147.23 7.31 147.39 7.55L147.39 7.55L147.39 7.55Q147.55 7.79 147.63 8.04L147.63 8.04L147.63 8.04Q147.72 8.30 147.77 8.72L147.77 8.72L147.77 8.72Q147.83 9.15 147.84 9.58L147.84 9.58L147.84 9.58Q147.85 10.01 147.85 10.66ZM143.12 10.04L143.12 10.04L146.51 10.04L146.51 10.04Q146.49 9.17 146.44 8.44L146.44 8.44L146.44 8.44Q146.41 8.03 146.08 7.89L146.08 7.89L146.08 7.89Q145.75 7.75 144.87 7.75L144.87 7.75L144.87 7.75Q143.89 7.75 143.63 7.85L143.63 7.85L143.63 7.85Q143.51 7.89 143.43 7.97L143.43 7.97L143.43 7.97Q143.34 8.06 143.29 8.22L143.29 8.22L143.29 8.22Q143.23 8.37 143.20 8.51L143.20 8.51L143.20 8.51Q143.17 8.65 143.15 8.89L143.15 8.89L143.15 8.89Q143.14 9.13 143.13 9.27L143.13 9.27L143.13 9.27Q143.12 9.40 143.12 9.67L143.12 9.67L143.12 9.67Q143.12 9.95 143.12 10.04ZM155.07 9.56L155.07 14.52L154 14.52L153.78 13.45L153.78 13.45Q153.58 14.15 153.04 14.39L153.04 14.39L153.04 14.39Q152.50 14.62 151.47 14.62L151.47 14.62L151.47 14.62Q150.79 14.62 150.35 14.49L150.35 14.49L150.35 14.49Q149.91 14.36 149.65 14.04L149.65 14.04L149.65 14.04Q149.39 13.73 149.29 13.27L149.29 13.27L149.29 13.27Q149.19 12.82 149.19 12.10L149.19 12.10L149.19 12.10Q149.19 11.78 149.31 11.53L149.31 11.53L149.31 11.53Q149.42 11.27 149.61 11.09L149.61 11.09L149.61 11.09Q149.81 10.92 150.13 10.79L150.13 10.79L150.13 10.79Q150.46 10.66 150.81 10.58L150.81 10.58L150.81 10.58Q151.16 10.51 151.65 10.46L151.65 10.46L151.65 10.46Q152.15 10.42 152.62 10.40L152.62 10.40L152.62 10.40Q153.09 10.39 153.72 10.39L153.72 10.39L153.72 8.36L153.72 8.36Q153.72 8.01 153.39 7.88L153.39 7.88L153.39 7.88Q153.06 7.75 152.22 7.75L152.22 7.75L152.22 7.75Q151.63 7.75 151.34 7.77L151.34 7.77L151.34 7.77Q151.05 7.80 150.89 7.93L150.89 7.93L150.89 7.93Q150.74 8.07 150.72 8.20L150.72 8.20L150.72 8.20Q150.69 8.33 150.68 8.68L150.68 8.68L150.68 8.68Q150.68 8.81 150.68 8.89L150.68 8.89L149.63 8.85L149.63 8.85Q149.62 8.74 149.62 8.52L149.62 8.52L149.62 8.52Q149.62 8.07 149.75 7.75L149.75 7.75L149.75 7.75Q149.88 7.43 150.10 7.25L150.10 7.25L150.10 7.25Q150.31 7.07 150.68 6.97L150.68 6.97L150.68 6.97Q151.05 6.86 151.41 6.84L151.41 6.84L151.41 6.84Q151.77 6.81 152.31 6.81L152.31 6.81L152.31 6.81Q153.13 6.81 153.64 6.94L153.64 6.94L153.64 6.94Q154.16 7.06 154.49 7.39L154.49 7.39L154.49 7.39Q154.81 7.72 154.94 8.23L154.94 8.23L154.94 8.23Q155.07 8.74 155.07 9.56L155.07 9.56ZM153.72 12.37L153.72 12.37L153.72 11.20L153.72 11.20Q152.37 11.20 151.65 11.31L151.65 11.31L151.65 11.31Q150.92 11.41 150.68 11.59L150.68 11.59L150.68 11.59Q150.44 11.77 150.44 12.10L150.44 12.10L150.44 12.10Q150.44 12.11 150.44 12.14L150.44 12.14L150.44 12.14Q150.44 13.18 150.61 13.43L150.61 13.43L150.61 13.43Q150.78 13.69 151.66 13.69L151.66 13.69L151.66 13.69Q152.40 13.69 152.87 13.51L152.87 13.51L152.87 13.51Q153.33 13.33 153.51 13.05L153.51 13.05L153.51 13.05Q153.69 12.78 153.72 12.37ZM163.07 10.36L163.07 14.52L161.72 14.52L161.72 9.98L161.72 9.98Q161.72 9.54 161.72 9.28L161.72 9.28L161.72 9.28Q161.72 9.02 161.69 8.75L161.69 8.75L161.69 8.75Q161.67 8.48 161.64 8.35L161.64 8.35L161.64 8.35Q161.62 8.22 161.54 8.08L161.54 8.08L161.54 8.08Q161.47 7.95 161.40 7.90L161.40 7.90L161.40 7.90Q161.32 7.85 161.18 7.81L161.18 7.81L161.18 7.81Q161.03 7.77 160.89 7.76L160.89 7.76L160.89 7.76Q160.75 7.75 160.51 7.75L160.51 7.75L160.51 7.75Q159.99 7.75 159.62 7.81L159.62 7.81L159.62 7.81Q159.26 7.87 159.02 7.97L159.02 7.97L159.02 7.97Q158.79 8.07 158.67 8.26L158.67 8.26L158.67 8.26Q158.54 8.44 158.49 8.66L158.49 8.66L158.49 8.66Q158.44 8.87 158.44 9.19L158.44 9.19L158.44 9.19Q158.44 9.37 158.46 9.81L158.46 9.81L158.46 9.81Q158.48 10.25 158.48 10.52L158.48 10.52L158.48 14.52L157.14 14.52L157.14 7.02L158.37 7.02L158.50 7.86L158.50 7.86Q158.68 7.30 159.28 7.05L159.28 7.05L159.28 7.05Q159.89 6.81 160.73 6.81L160.73 6.81L160.73 6.81Q161.13 6.81 161.44 6.86L161.44 6.86L161.44 6.86Q161.75 6.90 161.98 7.02L161.98 7.02L161.98 7.02Q162.22 7.13 162.40 7.27L162.40 7.27L162.40 7.27Q162.57 7.42 162.69 7.65L162.69 7.65L162.69 7.65Q162.81 7.89 162.89 8.13L162.89 8.13L162.89 8.13Q162.96 8.38 163.00 8.75L163.00 8.75L163.00 8.75Q163.04 9.12 163.06 9.48L163.06 9.48L163.06 9.48Q163.07 9.85 163.07 10.36L163.07 10.36ZM166.56 7.02L166.56 14.52L165.21 14.52L165.21 7.02L166.56 7.02ZM165.21 4.12L166.56 4.12L166.56 5.30L165.21 5.30L165.21 4.12ZM174.65 10.36L174.65 14.52L173.30 14.52L173.30 9.98L173.30 9.98Q173.30 9.54 173.30 9.28L173.30 9.28L173.30 9.28Q173.30 9.02 173.27 8.75L173.27 8.75L173.27 8.75Q173.25 8.48 173.22 8.35L173.22 8.35L173.22 8.35Q173.20 8.22 173.12 8.08L173.12 8.08L173.12 8.08Q173.05 7.95 172.98 7.90L172.98 7.90L172.98 7.90Q172.90 7.85 172.76 7.81L172.76 7.81L172.76 7.81Q172.61 7.77 172.47 7.76L172.47 7.76L172.47 7.76Q172.33 7.75 172.09 7.75L172.09 7.75L172.09 7.75Q171.57 7.75 171.20 7.81L171.20 7.81L171.20 7.81Q170.84 7.87 170.60 7.97L170.60 7.97L170.60 7.97Q170.37 8.07 170.25 8.26L170.25 8.26L170.25 8.26Q170.12 8.44 170.07 8.66L170.07 8.66L170.07 8.66Q170.02 8.87 170.02 9.19L170.02 9.19L170.02 9.19Q170.02 9.37 170.04 9.81L170.04 9.81L170.04 9.81Q170.06 10.25 170.06 10.52L170.06 10.52L170.06 14.52L168.72 14.52L168.72 7.02L169.95 7.02L170.08 7.86L170.08 7.86Q170.26 7.30 170.86 7.05L170.86 7.05L170.86 7.05Q171.47 6.81 172.31 6.81L172.31 6.81L172.31 6.81Q172.71 6.81 173.02 6.86L173.02 6.86L173.02 6.86Q173.33 6.90 173.56 7.02L173.56 7.02L173.56 7.02Q173.80 7.13 173.98 7.27L173.98 7.27L173.98 7.27Q174.15 7.42 174.27 7.65L174.27 7.65L174.27 7.65Q174.39 7.89 174.47 8.13L174.47 8.13L174.47 8.13Q174.54 8.38 174.58 8.75L174.58 8.75L174.58 8.75Q174.62 9.12 174.64 9.48L174.64 9.48L174.64 9.48Q174.65 9.85 174.65 10.36L174.65 10.36ZM181.41 7.02L182.64 7.02L182.64 13.57L182.64 13.57Q182.64 14.25 182.59 14.71L182.59 14.71L182.59 14.71Q182.55 15.18 182.43 15.58L182.43 15.58L182.43 15.58Q182.31 15.98 182.10 16.23L182.10 16.23L182.10 16.23Q181.90 16.47 181.56 16.65L181.56 16.65L181.56 16.65Q181.22 16.82 180.76 16.89L180.76 16.89L180.76 16.89Q180.30 16.96 179.66 16.96L179.66 16.96L179.66 16.96Q178.32 16.96 177.53 16.68L177.53 16.68L177.62 15.75L177.62 15.75Q178.38 15.96 179.44 15.96L179.44 15.96L179.44 15.96Q179.94 15.96 180.28 15.91L180.28 15.91L180.28 15.91Q180.63 15.85 180.82 15.77L180.82 15.77L180.82 15.77Q181.02 15.69 181.12 15.53L181.12 15.53L181.12 15.53Q181.23 15.38 181.26 15.23L181.26 15.23L181.26 15.23Q181.29 15.08 181.29 14.85L181.29 14.85L181.28 13.62L181.28 13.62Q181.10 14.10 180.65 14.32L180.65 14.32L180.65 14.32Q180.20 14.54 179.38 14.54L179.38 14.54L179.38 14.54Q178.79 14.54 178.35 14.46L178.35 14.46L178.35 14.46Q177.91 14.38 177.60 14.25L177.60 14.25L177.60 14.25Q177.30 14.13 177.10 13.87L177.10 13.87L177.10 13.87Q176.89 13.60 176.78 13.37L176.78 13.37L176.78 13.37Q176.66 13.13 176.61 12.69L176.61 12.69L176.61 12.69Q176.55 12.25 176.54 11.90L176.54 11.90L176.54 11.90Q176.52 11.55 176.52 10.94L176.52 10.94L176.52 10.94Q176.52 10.17 176.54 9.73L176.54 9.73L176.54 9.73Q176.55 9.29 176.60 8.78L176.60 8.78L176.60 8.78Q176.65 8.27 176.76 8.01L176.76 8.01L176.76 8.01Q176.87 7.75 177.04 7.48L177.04 7.48L177.04 7.48Q177.21 7.21 177.50 7.10L177.50 7.10L177.50 7.10Q177.78 6.98 178.15 6.90L178.15 6.90L178.15 6.90Q178.53 6.83 179.06 6.83L179.06 6.83L179.06 6.83Q179.96 6.83 180.50 7.07L180.50 7.07L180.50 7.07Q181.04 7.31 181.28 7.85L181.28 7.85L181.41 7.02ZM181.29 13.00L181.29 13.00L181.29 8.83L181.29 8.83Q181.29 8.25 180.91 8.00L180.91 8.00L180.91 8.00Q180.53 7.75 179.55 7.75L179.55 7.75L179.55 7.75Q178.60 7.75 178.24 7.92L178.24 7.92L178.24 7.92Q177.86 8.11 177.86 9.42L177.86 9.42L177.86 9.42Q177.86 11.40 177.91 12.87L177.91 12.87L177.91 12.87Q177.93 13.19 178.08 13.34L178.08 13.34L178.08 13.34Q178.23 13.49 178.58 13.55L178.58 13.55L178.58 13.55Q178.94 13.60 179.70 13.60L179.70 13.60L179.70 13.60Q181.22 13.60 181.29 13.00Z"></path></g><defs data-v-fde0c5aa=""><!----></defs><g data-v-fde0c5aa="" id="2a787850-9d66-493a-aea6-38bacfcc3b06" stroke="none" fill="#0EA7FF" transform="matrix(0.624481201171875,0,0,0.624481201171875,40,140.00830078812697)"><path d="M16 1c8.271 0 15 6.729 15 15s-6.729 15-15 15S1 24.271 1 16 7.729 1 16 1m0-1C7.163 0 0 7.163 0 16s7.163 16 16 16 16-7.163 16-16S24.837 0 16 0z"></path><path d="M16 7.045L24.955 16 16 24.955 7.045 16 16 7.045m0-1.414L5.631 16 16 26.369 26.369 16 16 5.631z"></path></g><!----></svg>