<svg data-v-423bf9ae="" xmlns="http://www.w3.org/2000/svg" viewBox="0 0 889 90" class="iconLeft"><!----><!----><!----><g data-v-423bf9ae="" id="bed68165-76c6-401e-a337-819661cf8507" fill="black" transform="matrix(4.474273299755366,0,0,4.474273299755366,107.94182409337463,0.5928400851963147)"><path d="M8.26 4.37L8.26 3.92L0.46 3.92L0.46 4.37L4.09 4.37L4.09 13.58L4.62 13.58L4.62 4.37ZM14.52 8.25C14.38 6.85 13.48 6.01 11.96 6.01C11.09 6.01 10.30 6.31 9.74 7.01L9.41 7.78L9.41 3.22L8.88 3.22L8.88 13.58L9.41 13.58L9.41 9.49C9.41 7.38 10.60 6.47 11.90 6.47C13.23 6.45 13.86 7.25 13.99 8.40C14.03 8.78 14.04 9.10 14.04 9.59L14.04 13.58L14.57 13.58L14.57 9.46C14.57 8.86 14.56 8.62 14.52 8.25ZM22.39 9.69C22.39 7.77 21.36 6.01 19.28 6.01C17.40 6.01 15.93 7.53 15.93 9.87C15.93 12.46 17.39 13.78 19.15 13.78C20.58 13.78 21.87 12.95 22.27 11.28L21.73 11.28C21.36 12.68 20.30 13.33 19.18 13.33C17.89 13.33 16.58 12.43 16.49 10.04L22.37 10.04C22.39 9.86 22.39 9.76 22.39 9.69ZM19.25 6.45C20.50 6.45 21.76 7.29 21.84 9.58L16.49 9.58C16.58 7.46 17.96 6.45 19.25 6.45ZM31.25 8.47C32.35 8.23 33.04 7.45 33.04 6.26C33.04 4.90 32.10 4.07 30.62 3.95C30.14 3.92 29.89 3.92 29.48 3.92L26.95 3.92L26.95 13.58L29.75 13.58C30.11 13.58 30.38 13.58 30.77 13.54C32.17 13.43 33.40 12.54 33.40 10.95C33.40 9.62 32.68 8.74 31.25 8.47ZM27.48 4.38L29.51 4.38C29.85 4.38 30.09 4.38 30.39 4.40C31.44 4.45 32.47 4.94 32.47 6.33C32.47 7.69 31.47 8.19 30.46 8.27C30.16 8.29 29.92 8.30 29.69 8.30L27.48 8.30ZM30.60 13.09C30.42 13.10 30.18 13.12 29.96 13.12L27.48 13.12L27.48 8.76L29.88 8.76C30.10 8.76 30.30 8.76 30.62 8.79C32.26 8.88 32.83 9.86 32.83 10.99C32.83 12.39 31.72 13.01 30.60 13.09ZM39.56 13.58L40.11 13.58C40.03 12.64 39.98 12.10 39.98 11.33L39.98 8.92C39.98 8.55 39.98 8.32 39.96 7.95C39.84 6.72 39.06 6.01 37.53 6.01C36.04 6.01 34.96 6.97 34.86 8.29L35.41 8.29C35.56 7 36.51 6.45 37.53 6.45C38.70 6.45 39.34 7.01 39.42 8.01C39.45 8.32 39.45 8.61 39.45 8.95L39.45 9.28L38.98 9.28C36.53 9.28 34.57 10.05 34.57 11.76C34.57 13.09 35.49 13.78 36.88 13.78C37.80 13.78 38.61 13.43 39.12 12.71L39.47 11.97ZM37.00 13.33C35.77 13.33 35.15 12.73 35.15 11.73C35.15 10.15 37.32 9.59 39.45 9.73L39.45 10.68C39.45 12.11 38.47 13.33 37.00 13.33ZM47.49 6.20L46.89 6.20L44.31 13.16L41.73 6.20L41.13 6.20L44.04 13.76L43.83 14.29C43.26 15.69 42.74 16.06 42.14 16.06C41.97 16.06 41.80 16.06 41.62 16.02L41.62 16.48C41.78 16.51 41.93 16.52 42.14 16.52C43.05 16.52 43.69 16.07 44.59 13.73ZM55.34 3.99C54.89 3.93 54.47 3.92 53.98 3.92L51.63 3.92L51.63 13.58L52.16 13.58L52.16 9.35L53.98 9.35C54.47 9.35 54.89 9.35 55.34 9.30C56.67 9.11 57.72 8.26 57.72 6.58C57.72 4.94 56.70 4.16 55.34 3.99ZM55.29 8.82C54.88 8.88 54.50 8.89 54.01 8.89L52.16 8.89L52.16 4.40L54.01 4.40C54.50 4.40 54.88 4.41 55.29 4.47C56.34 4.61 57.15 5.22 57.15 6.58C57.15 8.01 56.34 8.67 55.29 8.82ZM61.26 6.01C60.66 6.01 60.13 6.30 59.77 6.80L59.37 7.70L59.37 6.20L58.84 6.20L58.84 13.58L59.37 13.58L59.37 9.49C59.37 7.25 60.31 6.38 61.64 6.48L61.64 6.05C61.53 6.02 61.40 6.01 61.26 6.01ZM65.55 6.01C63.36 6.01 62.03 7.62 62.03 9.90C62.03 12.17 63.36 13.78 65.55 13.78C67.73 13.78 69.06 12.17 69.06 9.90C69.06 7.62 67.73 6.01 65.55 6.01ZM65.55 13.33C63.98 13.33 62.62 12.18 62.62 9.90C62.62 7.60 63.98 6.45 65.55 6.45C67.12 6.45 68.49 7.60 68.49 9.90C68.49 12.18 67.12 13.33 65.55 13.33ZM84.15 3.92L83.61 3.92L81.20 13.06L78.72 4.06L77.99 4.06L75.38 13.08L73.12 3.92L72.53 3.92L74.98 13.58L75.70 13.58L78.34 4.58L80.84 13.58L81.52 13.58ZM85.41 4.26C85.19 4.26 85.01 4.44 85.01 4.66C85.01 4.89 85.19 5.07 85.41 5.07C85.64 5.07 85.82 4.89 85.82 4.66C85.82 4.44 85.64 4.26 85.41 4.26ZM85.68 13.58L85.68 6.20L85.15 6.20L85.15 13.58ZM93.35 8.25C93.21 6.85 92.32 6.01 90.79 6.01C89.92 6.01 89.14 6.31 88.58 7.01L88.24 7.78L88.24 6.20L87.71 6.20L87.71 13.58L88.24 13.58L88.24 9.49C88.24 7.38 89.43 6.47 90.73 6.47C92.06 6.47 92.69 7.25 92.82 8.40C92.86 8.78 92.88 9.10 92.88 9.59L92.88 13.58L93.41 13.58L93.41 9.46C93.41 8.86 93.39 8.62 93.35 8.25ZM101.19 3.29L100.66 3.29L100.66 7.70L100.24 6.85C99.69 6.26 99.04 6.01 98.18 6.01C96.38 6.01 94.77 7.32 94.77 9.95C94.77 12.18 96.01 13.78 98.00 13.78C98.94 13.78 99.62 13.52 100.23 12.85L100.66 12.01L100.66 13.58L101.19 13.58ZM98.06 13.33C96.29 13.33 95.35 11.75 95.35 9.88C95.35 7.81 96.53 6.45 98.18 6.45C99.32 6.45 100.66 7.17 100.66 9.45L100.66 10.16C100.66 12.52 99.46 13.33 98.06 13.33ZM106.15 6.01C103.96 6.01 102.63 7.62 102.63 9.90C102.63 12.17 103.96 13.78 106.15 13.78C108.33 13.78 109.66 12.17 109.66 9.90C109.66 7.62 108.33 6.01 106.15 6.01ZM106.15 13.33C104.58 13.33 103.22 12.18 103.22 9.90C103.22 7.60 104.58 6.45 106.15 6.45C107.72 6.45 109.09 7.60 109.09 9.90C109.09 12.18 107.72 13.33 106.15 13.33ZM120.25 6.20L119.67 6.20L117.63 13.03L115.63 6.22L114.93 6.22L112.94 13.06L110.84 6.20L110.22 6.20L112.57 13.58L113.29 13.58L115.28 6.76L117.26 13.58L117.91 13.58ZM128.16 3.72C125.62 3.72 123.73 5.78 123.73 8.78C123.73 11.84 125.47 13.78 127.97 13.78C130.34 13.78 131.56 12.32 131.88 10.53L131.89 10.39L131.36 10.39L131.33 10.53C131.01 12.11 129.96 13.31 128.00 13.31C125.97 13.31 124.32 11.76 124.32 8.75C124.32 5.85 126.11 4.19 128.11 4.19C129.95 4.19 131.03 5.32 131.33 6.85L131.36 6.99L131.89 6.99L131.88 6.85C131.56 5.08 130.35 3.72 128.16 3.72ZM134.09 3.29L133.56 3.29L133.56 11.80C133.56 12.29 133.56 12.54 133.57 12.82C133.60 13.47 133.94 13.65 134.40 13.65C134.57 13.65 134.75 13.65 134.92 13.61L134.92 13.19C134.32 13.26 134.13 13.15 134.11 12.68C134.09 12.47 134.09 12.21 134.09 11.79ZM142.16 9.69C142.16 7.77 141.13 6.01 139.05 6.01C137.17 6.01 135.70 7.53 135.70 9.87C135.70 12.46 137.16 13.78 138.92 13.78C140.35 13.78 141.64 12.95 142.04 11.28L141.50 11.28C141.13 12.68 140.07 13.33 138.95 13.33C137.66 13.33 136.35 12.43 136.26 10.04L142.14 10.04C142.16 9.86 142.16 9.76 142.16 9.69ZM139.02 6.45C140.27 6.45 141.53 7.29 141.61 9.58L136.26 9.58C136.35 7.46 137.73 6.45 139.02 6.45ZM148.29 13.58L148.83 13.58C148.75 12.64 148.71 12.10 148.71 11.33L148.71 8.92C148.71 8.55 148.71 8.32 148.68 7.95C148.57 6.72 147.78 6.01 146.26 6.01C144.76 6.01 143.68 6.97 143.58 8.29L144.13 8.29C144.28 7 145.24 6.45 146.26 6.45C147.42 6.45 148.06 7.01 148.15 8.01C148.18 8.32 148.18 8.61 148.18 8.95L148.18 9.28L147.70 9.28C145.25 9.28 143.29 10.05 143.29 11.76C143.29 13.09 144.21 13.78 145.60 13.78C146.52 13.78 147.34 13.43 147.84 12.71L148.19 11.97ZM145.73 13.33C144.49 13.33 143.88 12.73 143.88 11.73C143.88 10.15 146.05 9.59 148.18 9.73L148.18 10.68C148.18 12.11 147.20 13.33 145.73 13.33ZM156.37 8.25C156.23 6.85 155.33 6.01 153.80 6.01C152.94 6.01 152.15 6.31 151.59 7.01L151.26 7.78L151.26 6.20L150.72 6.20L150.72 13.58L151.26 13.58L151.26 9.49C151.26 7.38 152.45 6.47 153.75 6.47C155.08 6.47 155.71 7.25 155.83 8.40C155.88 8.78 155.89 9.10 155.89 9.59L155.89 13.58L156.42 13.58L156.42 9.46C156.42 8.86 156.41 8.62 156.37 8.25ZM158.63 4.26C158.41 4.26 158.23 4.44 158.23 4.66C158.23 4.89 158.41 5.07 158.63 5.07C158.86 5.07 159.04 4.89 159.04 4.66C159.04 4.44 158.86 4.26 158.63 4.26ZM158.90 13.58L158.90 6.20L158.37 6.20L158.37 13.58ZM166.57 8.25C166.43 6.85 165.54 6.01 164.01 6.01C163.14 6.01 162.36 6.31 161.80 7.01L161.46 7.78L161.46 6.20L160.93 6.20L160.93 13.58L161.46 13.58L161.46 9.49C161.46 7.38 162.65 6.47 163.95 6.47C165.28 6.47 165.91 7.25 166.04 8.40C166.08 8.78 166.10 9.10 166.10 9.59L166.10 13.58L166.63 13.58L166.63 9.46C166.63 8.86 166.61 8.62 166.57 8.25ZM174.41 6.16L173.88 6.16L173.88 7.70L173.46 6.85C172.91 6.26 172.26 6.01 171.40 6.01C169.60 6.01 167.99 7.32 167.99 9.95C167.99 12.18 169.23 13.78 171.22 13.78C172.16 13.78 172.84 13.52 173.45 12.85L173.88 12.01L173.88 12.26C173.88 12.84 173.88 13.17 173.87 13.64C173.82 15.15 172.94 16.17 171.28 16.17C170.04 16.17 169.01 15.64 168.84 14.35L168.83 14.17L168.28 14.17L168.31 14.35C168.52 16.00 169.71 16.63 171.25 16.63C173.19 16.63 174.34 15.47 174.40 13.68C174.41 13.22 174.41 12.64 174.41 11.65ZM171.28 13.33C169.51 13.33 168.57 11.75 168.57 9.88C168.57 7.81 169.75 6.45 171.40 6.45C172.54 6.45 173.88 7.17 173.88 9.45L173.88 10.16C173.88 12.52 172.68 13.33 171.28 13.33Z"></path></g><!----><g data-v-423bf9ae="" id="ed0ebee1-1960-4f3e-b5e7-243304de7768" transform="matrix(2.8125,0,0,2.8125,0,0)" stroke="none" fill="black"><path d="M16 1c8.271 0 15 6.729 15 15s-6.729 15-15 15S1 24.271 1 16 7.729 1 16 1m0-1C7.163 0 0 7.163 0 16s7.163 16 16 16 16-7.163 16-16S24.837 0 16 0z"></path><path d="M16 7.045L24.955 16 16 24.955 7.045 16 16 7.045m0-1.414L5.631 16 16 26.369 26.369 16 16 5.631z"></path></g><!----></svg>